<?xml version="1.0" encoding="UTF-8" standalone="no"?><svg xmlns="http://www.w3.org/2000/svg" xmlns:xlink="http://www.w3.org/1999/xlink" contentScriptType="application/ecmascript" contentStyleType="text/css" height="1002px" preserveAspectRatio="none" style="width:1407px;height:1002px;" version="1.1" viewBox="0 0 1407 1002" width="1407px" zoomAndPan="magnify"><defs><filter height="300%" id="f1khizouoxtwqb" width="300%" x="-1" y="-1"><feGaussianBlur result="blurOut" stdDeviation="2.0"/><feColorMatrix in="blurOut" result="blurOut2" type="matrix" values="0 0 0 0 0 0 0 0 0 0 0 0 0 0 0 0 0 0 .4 0"/><feOffset dx="4.0" dy="4.0" in="blurOut2" result="blurOut3"/><feBlend in="SourceGraphic" in2="blurOut3" mode="normal"/></filter></defs><g><!--cluster managers--><polygon fill="#DDDDDD" filter="url(#f1khizouoxtwqb)" points="134,24,218,24,225,46.2969,937,46.2969,937,670,134,670,134,24" style="stroke: #000000; stroke-width: 1.5;"/><line style="stroke: #000000; stroke-width: 1.5;" x1="134" x2="225" y1="46.2969" y2="46.2969"/><text fill="#000000" font-family="sans-serif" font-size="14" font-weight="bold" lengthAdjust="spacingAndGlyphs" textLength="78" x="138" y="38.9951">managers</text><!--cluster tests--><polygon fill="#DDDDDD" filter="url(#f1khizouoxtwqb)" points="143,705.5,189,705.5,196,727.7969,496,727.7969,496,990,143,990,143,705.5" style="stroke: #000000; stroke-width: 1.5;"/><line style="stroke: #000000; stroke-width: 1.5;" x1="143" x2="196" y1="727.7969" y2="727.7969"/><text fill="#000000" font-family="sans-serif" font-size="14" font-weight="bold" lengthAdjust="spacingAndGlyphs" textLength="40" x="147" y="720.4951">tests</text><!--cluster model--><polygon fill="#DDDDDD" filter="url(#f1khizouoxtwqb)" points="1151,465,1205,465,1212,487.2969,1385,487.2969,1385,869,1151,869,1151,465" style="stroke: #000000; stroke-width: 1.5;"/><line style="stroke: #000000; stroke-width: 1.5;" x1="1151" x2="1212" y1="487.2969" y2="487.2969"/><text fill="#000000" font-family="sans-serif" font-size="14" font-weight="bold" lengthAdjust="spacingAndGlyphs" textLength="48" x="1155" y="479.9951">model</text><!--cluster bdd--><polygon fill="#DDDDDD" filter="url(#f1khizouoxtwqb)" points="1015,191,1051,191,1058,213.2969,1331,213.2969,1331,388,1015,388,1015,191" style="stroke: #000000; stroke-width: 1.5;"/><line style="stroke: #000000; stroke-width: 1.5;" x1="1015" x2="1058" y1="213.2969" y2="213.2969"/><text fill="#000000" font-family="sans-serif" font-size="14" font-weight="bold" lengthAdjust="spacingAndGlyphs" textLength="30" x="1019" y="205.9951">bdd</text><!--class ApplicationManager--><rect fill="#FEFECE" filter="url(#f1khizouoxtwqb)" height="222.4609" id="ApplicationManager" style="stroke: #A80036; stroke-width: 1.5;" width="215" x="376.5" y="432"/><ellipse cx="418.05" cy="448" fill="#ADD1B2" rx="11" ry="11" style="stroke: #A80036; stroke-width: 1.0;"/><path d="M420.3938,443.6719 L420.5656,443.75 C420.7844,443.4375 420.9875,443.3438 421.2844,443.3438 C421.5813,443.3438 421.8625,443.4844 422.0188,443.75 C422.1125,443.9063 422.1281,444.0313 422.1281,444.4688 L422.1281,445.8906 C422.1281,446.3125 422.0969,446.5 421.9875,446.6563 C421.8156,446.875 421.55,447.0156 421.2844,447.0156 C421.0656,447.0156 420.8313,446.9063 420.6906,446.7656 C420.55,446.6406 420.5188,446.5156 420.4563,446.1094 C420.3625,445.7031 420.1906,445.4844 419.7063,445.2031 C419.2375,444.9531 418.6281,444.7969 418.05,444.7969 C416.3156,444.7969 415.0656,446.1094 415.0656,447.8906 L415.0656,448.9844 C415.0656,450.6875 416.3625,451.7813 418.4094,451.7813 C419.175,451.7813 419.8625,451.6563 420.2844,451.3906 C420.4719,451.2969 420.4719,451.2969 420.925,450.8125 C421.1125,450.625 421.3156,450.5469 421.5344,450.5469 C422.0031,450.5469 422.3938,450.9375 422.3938,451.3906 C422.3938,451.7813 422.0656,452.2344 421.4875,452.6406 C420.7375,453.1875 419.5813,453.4844 418.3625,453.4844 C415.4719,453.4844 413.3625,451.5938 413.3625,449.0156 L413.3625,447.8906 C413.3625,445.1719 415.3625,443.0938 417.9875,443.0938 C418.8625,443.0938 419.4563,443.2344 420.3938,443.6719 Z "/><text fill="#000000" font-family="sans-serif" font-size="12" lengthAdjust="spacingAndGlyphs" textLength="124" x="437.95" y="452.1543">ApplicationManager</text><line style="stroke: #A80036; stroke-width: 1.5;" x1="377.5" x2="590.5" y1="464" y2="464"/><text fill="#000000" font-family="sans-serif" font-size="11" lengthAdjust="spacingAndGlyphs" textLength="130" x="382.5" y="478.2104">-properties: Properties</text><text fill="#000000" font-family="sans-serif" font-size="11" lengthAdjust="spacingAndGlyphs" textLength="102" x="382.5" y="491.0151">-driver: WebDriver</text><text fill="#000000" font-family="sans-serif" font-size="11" lengthAdjust="spacingAndGlyphs" textLength="73" x="382.5" y="503.8198">-someHelper</text><text fill="#000000" font-family="sans-serif" font-size="11" lengthAdjust="spacingAndGlyphs" textLength="62" x="382.5" y="516.6245">-unitHelper</text><text fill="#000000" font-family="sans-serif" font-size="11" lengthAdjust="spacingAndGlyphs" textLength="93" x="382.5" y="529.4292">-browser: String</text><line style="stroke: #A80036; stroke-width: 1.5;" x1="377.5" x2="590.5" y1="536.0234" y2="536.0234"/><text fill="#000000" font-family="sans-serif" font-size="11" lengthAdjust="spacingAndGlyphs" textLength="203" x="382.5" y="550.2339">ApplicationManager(String browser)</text><line style="stroke: #A80036; stroke-width: 1.0; stroke-dasharray: 1.0,2.0;" x1="377.5" x2="590.5" y1="556.8281" y2="556.8281"/><text fill="#000000" font-family="sans-serif" font-size="11" lengthAdjust="spacingAndGlyphs" textLength="34" x="382.5" y="571.0386">+init()</text><text fill="#000000" font-family="sans-serif" font-size="11" lengthAdjust="spacingAndGlyphs" textLength="42" x="382.5" y="583.8433">+stop()</text><text fill="#000000" font-family="sans-serif" font-size="11" lengthAdjust="spacingAndGlyphs" textLength="182" x="382.5" y="596.6479">+getProperty(String key): String</text><text fill="#000000" font-family="sans-serif" font-size="11" lengthAdjust="spacingAndGlyphs" textLength="134" x="382.5" y="609.4526">+getDriver(): WebDriver</text><text fill="#000000" font-family="sans-serif" font-size="11" lengthAdjust="spacingAndGlyphs" textLength="164" x="382.5" y="622.2573">+someHelper(): SomeHelper</text><text fill="#000000" font-family="sans-serif" font-size="11" lengthAdjust="spacingAndGlyphs" textLength="161" x="382.5" y="635.062">+otherHelper(): OtherHelper</text><text fill="#000000" font-family="sans-serif" font-size="11" lengthAdjust="spacingAndGlyphs" textLength="142" x="382.5" y="647.8667">+unitHelper(): UnitHelper</text><!--class HelperBase--><rect fill="#FEFECE" filter="url(#f1khizouoxtwqb)" height="107.2188" id="HelperBase" style="stroke: #A80036; stroke-width: 1.5;" width="221" x="448.5" y="59"/><ellipse cx="518.75" cy="75" fill="#ADD1B2" rx="11" ry="11" style="stroke: #A80036; stroke-width: 1.0;"/><path d="M521.0938,70.6719 L521.2656,70.75 C521.4844,70.4375 521.6875,70.3438 521.9844,70.3438 C522.2813,70.3438 522.5625,70.4844 522.7188,70.75 C522.8125,70.9063 522.8281,71.0313 522.8281,71.4688 L522.8281,72.8906 C522.8281,73.3125 522.7969,73.5 522.6875,73.6563 C522.5156,73.875 522.25,74.0156 521.9844,74.0156 C521.7656,74.0156 521.5313,73.9063 521.3906,73.7656 C521.25,73.6406 521.2188,73.5156 521.1563,73.1094 C521.0625,72.7031 520.8906,72.4844 520.4063,72.2031 C519.9375,71.9531 519.3281,71.7969 518.75,71.7969 C517.0156,71.7969 515.7656,73.1094 515.7656,74.8906 L515.7656,75.9844 C515.7656,77.6875 517.0625,78.7813 519.1094,78.7813 C519.875,78.7813 520.5625,78.6563 520.9844,78.3906 C521.1719,78.2969 521.1719,78.2969 521.625,77.8125 C521.8125,77.625 522.0156,77.5469 522.2344,77.5469 C522.7031,77.5469 523.0938,77.9375 523.0938,78.3906 C523.0938,78.7813 522.7656,79.2344 522.1875,79.6406 C521.4375,80.1875 520.2813,80.4844 519.0625,80.4844 C516.1719,80.4844 514.0625,78.5938 514.0625,76.0156 L514.0625,74.8906 C514.0625,72.1719 516.0625,70.0938 518.6875,70.0938 C519.5625,70.0938 520.1563,70.2344 521.0938,70.6719 Z "/><text fill="#000000" font-family="sans-serif" font-size="12" lengthAdjust="spacingAndGlyphs" textLength="72" x="539.25" y="79.1543">HelperBase</text><line style="stroke: #A80036; stroke-width: 1.5;" x1="449.5" x2="668.5" y1="91" y2="91"/><text fill="#000000" font-family="sans-serif" font-size="11" lengthAdjust="spacingAndGlyphs" textLength="148" x="454.5" y="105.2104">#app: ApplicationManager</text><text fill="#000000" font-family="sans-serif" font-size="11" lengthAdjust="spacingAndGlyphs" textLength="107" x="454.5" y="118.0151">#driver: WebDriver</text><line style="stroke: #A80036; stroke-width: 1.5;" x1="449.5" x2="668.5" y1="124.6094" y2="124.6094"/><text fill="#000000" font-family="sans-serif" font-size="11" lengthAdjust="spacingAndGlyphs" textLength="209" x="454.5" y="138.8198">HelperBase(ApplicationManager app)</text><line style="stroke: #A80036; stroke-width: 1.0; stroke-dasharray: 1.0,2.0;" x1="449.5" x2="668.5" y1="145.4141" y2="145.4141"/><text fill="#000000" font-family="sans-serif" font-size="11" lengthAdjust="spacingAndGlyphs" textLength="117" x="454.5" y="159.6245">#someWebPageAct()</text><!--class SomeHelper--><rect fill="#FEFECE" filter="url(#f1khizouoxtwqb)" height="60.8047" id="SomeHelper" style="stroke: #A80036; stroke-width: 1.5;" width="225" x="446.5" y="268.5"/><ellipse cx="516.75" cy="284.5" fill="#ADD1B2" rx="11" ry="11" style="stroke: #A80036; stroke-width: 1.0;"/><path d="M519.0938,280.1719 L519.2656,280.25 C519.4844,279.9375 519.6875,279.8438 519.9844,279.8438 C520.2813,279.8438 520.5625,279.9844 520.7188,280.25 C520.8125,280.4063 520.8281,280.5313 520.8281,280.9688 L520.8281,282.3906 C520.8281,282.8125 520.7969,283 520.6875,283.1563 C520.5156,283.375 520.25,283.5156 519.9844,283.5156 C519.7656,283.5156 519.5313,283.4063 519.3906,283.2656 C519.25,283.1406 519.2188,283.0156 519.1563,282.6094 C519.0625,282.2031 518.8906,281.9844 518.4063,281.7031 C517.9375,281.4531 517.3281,281.2969 516.75,281.2969 C515.0156,281.2969 513.7656,282.6094 513.7656,284.3906 L513.7656,285.4844 C513.7656,287.1875 515.0625,288.2813 517.1094,288.2813 C517.875,288.2813 518.5625,288.1563 518.9844,287.8906 C519.1719,287.7969 519.1719,287.7969 519.625,287.3125 C519.8125,287.125 520.0156,287.0469 520.2344,287.0469 C520.7031,287.0469 521.0938,287.4375 521.0938,287.8906 C521.0938,288.2813 520.7656,288.7344 520.1875,289.1406 C519.4375,289.6875 518.2813,289.9844 517.0625,289.9844 C514.1719,289.9844 512.0625,288.0938 512.0625,285.5156 L512.0625,284.3906 C512.0625,281.6719 514.0625,279.5938 516.6875,279.5938 C517.5625,279.5938 518.1563,279.7344 519.0938,280.1719 Z "/><text fill="#000000" font-family="sans-serif" font-size="12" lengthAdjust="spacingAndGlyphs" textLength="76" x="537.25" y="288.6543">SomeHelper</text><line style="stroke: #A80036; stroke-width: 1.5;" x1="447.5" x2="670.5" y1="300.5" y2="300.5"/><line style="stroke: #A80036; stroke-width: 1.5;" x1="447.5" x2="670.5" y1="308.5" y2="308.5"/><text fill="#000000" font-family="sans-serif" font-size="11" lengthAdjust="spacingAndGlyphs" textLength="213" x="452.5" y="322.7104">SomeHelper(ApplicationManager app)</text><!--class OtherHelper--><rect fill="#FEFECE" filter="url(#f1khizouoxtwqb)" height="60.8047" id="OtherHelper" style="stroke: #A80036; stroke-width: 1.5;" width="224" x="150" y="268.5"/><ellipse cx="219.75" cy="284.5" fill="#ADD1B2" rx="11" ry="11" style="stroke: #A80036; stroke-width: 1.0;"/><path d="M222.0938,280.1719 L222.2656,280.25 C222.4844,279.9375 222.6875,279.8438 222.9844,279.8438 C223.2813,279.8438 223.5625,279.9844 223.7188,280.25 C223.8125,280.4063 223.8281,280.5313 223.8281,280.9688 L223.8281,282.3906 C223.8281,282.8125 223.7969,283 223.6875,283.1563 C223.5156,283.375 223.25,283.5156 222.9844,283.5156 C222.7656,283.5156 222.5313,283.4063 222.3906,283.2656 C222.25,283.1406 222.2188,283.0156 222.1563,282.6094 C222.0625,282.2031 221.8906,281.9844 221.4063,281.7031 C220.9375,281.4531 220.3281,281.2969 219.75,281.2969 C218.0156,281.2969 216.7656,282.6094 216.7656,284.3906 L216.7656,285.4844 C216.7656,287.1875 218.0625,288.2813 220.1094,288.2813 C220.875,288.2813 221.5625,288.1563 221.9844,287.8906 C222.1719,287.7969 222.1719,287.7969 222.625,287.3125 C222.8125,287.125 223.0156,287.0469 223.2344,287.0469 C223.7031,287.0469 224.0938,287.4375 224.0938,287.8906 C224.0938,288.2813 223.7656,288.7344 223.1875,289.1406 C222.4375,289.6875 221.2813,289.9844 220.0625,289.9844 C217.1719,289.9844 215.0625,288.0938 215.0625,285.5156 L215.0625,284.3906 C215.0625,281.6719 217.0625,279.5938 219.6875,279.5938 C220.5625,279.5938 221.1563,279.7344 222.0938,280.1719 Z "/><text fill="#000000" font-family="sans-serif" font-size="12" lengthAdjust="spacingAndGlyphs" textLength="76" x="240.25" y="288.6543">OtherHelper</text><line style="stroke: #A80036; stroke-width: 1.5;" x1="151" x2="373" y1="300.5" y2="300.5"/><line style="stroke: #A80036; stroke-width: 1.5;" x1="151" x2="373" y1="308.5" y2="308.5"/><text fill="#000000" font-family="sans-serif" font-size="11" lengthAdjust="spacingAndGlyphs" textLength="212" x="156" y="322.7104">OtherHelper(ApplicationManager app)</text><!--class UnitHelper--><rect fill="#FEFECE" filter="url(#f1khizouoxtwqb)" height="60.8047" id="UnitHelper" style="stroke: #A80036; stroke-width: 1.5;" width="214" x="707" y="268.5"/><ellipse cx="776.75" cy="284.5" fill="#ADD1B2" rx="11" ry="11" style="stroke: #A80036; stroke-width: 1.0;"/><path d="M779.0938,280.1719 L779.2656,280.25 C779.4844,279.9375 779.6875,279.8438 779.9844,279.8438 C780.2813,279.8438 780.5625,279.9844 780.7188,280.25 C780.8125,280.4063 780.8281,280.5313 780.8281,280.9688 L780.8281,282.3906 C780.8281,282.8125 780.7969,283 780.6875,283.1563 C780.5156,283.375 780.25,283.5156 779.9844,283.5156 C779.7656,283.5156 779.5313,283.4063 779.3906,283.2656 C779.25,283.1406 779.2188,283.0156 779.1563,282.6094 C779.0625,282.2031 778.8906,281.9844 778.4063,281.7031 C777.9375,281.4531 777.3281,281.2969 776.75,281.2969 C775.0156,281.2969 773.7656,282.6094 773.7656,284.3906 L773.7656,285.4844 C773.7656,287.1875 775.0625,288.2813 777.1094,288.2813 C777.875,288.2813 778.5625,288.1563 778.9844,287.8906 C779.1719,287.7969 779.1719,287.7969 779.625,287.3125 C779.8125,287.125 780.0156,287.0469 780.2344,287.0469 C780.7031,287.0469 781.0938,287.4375 781.0938,287.8906 C781.0938,288.2813 780.7656,288.7344 780.1875,289.1406 C779.4375,289.6875 778.2813,289.9844 777.0625,289.9844 C774.1719,289.9844 772.0625,288.0938 772.0625,285.5156 L772.0625,284.3906 C772.0625,281.6719 774.0625,279.5938 776.6875,279.5938 C777.5625,279.5938 778.1563,279.7344 779.0938,280.1719 Z "/><text fill="#000000" font-family="sans-serif" font-size="12" lengthAdjust="spacingAndGlyphs" textLength="66" x="797.25" y="288.6543">UnitHelper</text><line style="stroke: #A80036; stroke-width: 1.5;" x1="708" x2="920" y1="300.5" y2="300.5"/><line style="stroke: #A80036; stroke-width: 1.5;" x1="708" x2="920" y1="308.5" y2="308.5"/><text fill="#000000" font-family="sans-serif" font-size="11" lengthAdjust="spacingAndGlyphs" textLength="202" x="713" y="322.7104">UnitHelper(ApplicationManager app)</text><!--class TestBase--><rect fill="#FEFECE" filter="url(#f1khizouoxtwqb)" height="86.4141" id="TestBase" style="stroke: #A80036; stroke-width: 1.5;" width="160" x="320" y="740.5"/><ellipse cx="366.75" cy="756.5" fill="#ADD1B2" rx="11" ry="11" style="stroke: #A80036; stroke-width: 1.0;"/><path d="M369.0938,752.1719 L369.2656,752.25 C369.4844,751.9375 369.6875,751.8438 369.9844,751.8438 C370.2813,751.8438 370.5625,751.9844 370.7188,752.25 C370.8125,752.4063 370.8281,752.5313 370.8281,752.9688 L370.8281,754.3906 C370.8281,754.8125 370.7969,755 370.6875,755.1563 C370.5156,755.375 370.25,755.5156 369.9844,755.5156 C369.7656,755.5156 369.5313,755.4063 369.3906,755.2656 C369.25,755.1406 369.2188,755.0156 369.1563,754.6094 C369.0625,754.2031 368.8906,753.9844 368.4063,753.7031 C367.9375,753.4531 367.3281,753.2969 366.75,753.2969 C365.0156,753.2969 363.7656,754.6094 363.7656,756.3906 L363.7656,757.4844 C363.7656,759.1875 365.0625,760.2813 367.1094,760.2813 C367.875,760.2813 368.5625,760.1563 368.9844,759.8906 C369.1719,759.7969 369.1719,759.7969 369.625,759.3125 C369.8125,759.125 370.0156,759.0469 370.2344,759.0469 C370.7031,759.0469 371.0938,759.4375 371.0938,759.8906 C371.0938,760.2813 370.7656,760.7344 370.1875,761.1406 C369.4375,761.6875 368.2813,761.9844 367.0625,761.9844 C364.1719,761.9844 362.0625,760.0938 362.0625,757.5156 L362.0625,756.3906 C362.0625,753.6719 364.0625,751.5938 366.6875,751.5938 C367.5625,751.5938 368.1563,751.7344 369.0938,752.1719 Z "/><text fill="#000000" font-family="sans-serif" font-size="12" lengthAdjust="spacingAndGlyphs" textLength="58" x="387.25" y="760.6543">TestBase</text><line style="stroke: #A80036; stroke-width: 1.5;" x1="321" x2="479" y1="772.5" y2="772.5"/><text fill="#000000" font-family="sans-serif" font-size="11" lengthAdjust="spacingAndGlyphs" text-decoration="underline" textLength="148" x="326" y="786.7104">#app: ApplicationManager</text><line style="stroke: #000000; stroke-width: 1.0;" x1="326" x2="474" y1="788.7104" y2="788.7104"/><line style="stroke: #A80036; stroke-width: 1.5;" x1="321" x2="479" y1="793.3047" y2="793.3047"/><text fill="#000000" font-family="sans-serif" font-size="11" lengthAdjust="spacingAndGlyphs" textLength="50" x="326" y="807.5151">+setUp()</text><text fill="#000000" font-family="sans-serif" font-size="11" lengthAdjust="spacingAndGlyphs" textLength="71" x="326" y="820.3198">+tearDown()</text><!--class UnitEvent1Tests--><rect fill="#FEFECE" filter="url(#f1khizouoxtwqb)" height="60.8047" id="UnitEvent1Tests" style="stroke: #A80036; stroke-width: 1.5;" width="134" x="170" y="913"/><ellipse cx="185" cy="929" fill="#ADD1B2" rx="11" ry="11" style="stroke: #A80036; stroke-width: 1.0;"/><path d="M187.3438,924.6719 L187.5156,924.75 C187.7344,924.4375 187.9375,924.3438 188.2344,924.3438 C188.5313,924.3438 188.8125,924.4844 188.9688,924.75 C189.0625,924.9063 189.0781,925.0313 189.0781,925.4688 L189.0781,926.8906 C189.0781,927.3125 189.0469,927.5 188.9375,927.6563 C188.7656,927.875 188.5,928.0156 188.2344,928.0156 C188.0156,928.0156 187.7813,927.9063 187.6406,927.7656 C187.5,927.6406 187.4688,927.5156 187.4063,927.1094 C187.3125,926.7031 187.1406,926.4844 186.6563,926.2031 C186.1875,925.9531 185.5781,925.7969 185,925.7969 C183.2656,925.7969 182.0156,927.1094 182.0156,928.8906 L182.0156,929.9844 C182.0156,931.6875 183.3125,932.7813 185.3594,932.7813 C186.125,932.7813 186.8125,932.6563 187.2344,932.3906 C187.4219,932.2969 187.4219,932.2969 187.875,931.8125 C188.0625,931.625 188.2656,931.5469 188.4844,931.5469 C188.9531,931.5469 189.3438,931.9375 189.3438,932.3906 C189.3438,932.7813 189.0156,933.2344 188.4375,933.6406 C187.6875,934.1875 186.5313,934.4844 185.3125,934.4844 C182.4219,934.4844 180.3125,932.5938 180.3125,930.0156 L180.3125,928.8906 C180.3125,926.1719 182.3125,924.0938 184.9375,924.0938 C185.8125,924.0938 186.4063,924.2344 187.3438,924.6719 Z "/><text fill="#000000" font-family="sans-serif" font-size="12" lengthAdjust="spacingAndGlyphs" textLength="102" x="199" y="933.1543">UnitEvent1Tests</text><line style="stroke: #A80036; stroke-width: 1.5;" x1="171" x2="303" y1="945" y2="945"/><line style="stroke: #A80036; stroke-width: 1.5;" x1="171" x2="303" y1="953" y2="953"/><text fill="#000000" font-family="sans-serif" font-size="11" lengthAdjust="spacingAndGlyphs" textLength="99" x="176" y="967.2104">+testUnitEvent1()</text><!--class UnitEvent2Tests--><rect fill="#FEFECE" filter="url(#f1khizouoxtwqb)" height="60.8047" id="UnitEvent2Tests" style="stroke: #A80036; stroke-width: 1.5;" width="134" x="339" y="913"/><ellipse cx="354" cy="929" fill="#ADD1B2" rx="11" ry="11" style="stroke: #A80036; stroke-width: 1.0;"/><path d="M356.3438,924.6719 L356.5156,924.75 C356.7344,924.4375 356.9375,924.3438 357.2344,924.3438 C357.5313,924.3438 357.8125,924.4844 357.9688,924.75 C358.0625,924.9063 358.0781,925.0313 358.0781,925.4688 L358.0781,926.8906 C358.0781,927.3125 358.0469,927.5 357.9375,927.6563 C357.7656,927.875 357.5,928.0156 357.2344,928.0156 C357.0156,928.0156 356.7813,927.9063 356.6406,927.7656 C356.5,927.6406 356.4688,927.5156 356.4063,927.1094 C356.3125,926.7031 356.1406,926.4844 355.6563,926.2031 C355.1875,925.9531 354.5781,925.7969 354,925.7969 C352.2656,925.7969 351.0156,927.1094 351.0156,928.8906 L351.0156,929.9844 C351.0156,931.6875 352.3125,932.7813 354.3594,932.7813 C355.125,932.7813 355.8125,932.6563 356.2344,932.3906 C356.4219,932.2969 356.4219,932.2969 356.875,931.8125 C357.0625,931.625 357.2656,931.5469 357.4844,931.5469 C357.9531,931.5469 358.3438,931.9375 358.3438,932.3906 C358.3438,932.7813 358.0156,933.2344 357.4375,933.6406 C356.6875,934.1875 355.5313,934.4844 354.3125,934.4844 C351.4219,934.4844 349.3125,932.5938 349.3125,930.0156 L349.3125,928.8906 C349.3125,926.1719 351.3125,924.0938 353.9375,924.0938 C354.8125,924.0938 355.4063,924.2344 356.3438,924.6719 Z "/><text fill="#000000" font-family="sans-serif" font-size="12" lengthAdjust="spacingAndGlyphs" textLength="102" x="368" y="933.1543">UnitEvent2Tests</text><line style="stroke: #A80036; stroke-width: 1.5;" x1="340" x2="472" y1="945" y2="945"/><line style="stroke: #A80036; stroke-width: 1.5;" x1="340" x2="472" y1="953" y2="953"/><text fill="#000000" font-family="sans-serif" font-size="11" lengthAdjust="spacingAndGlyphs" textLength="99" x="345" y="967.2104">+testUnitEvent2()</text><!--class MyTestListener--><rect fill="#FEFECE" filter="url(#f1khizouoxtwqb)" height="48" id="MyTestListener" style="stroke: #A80036; stroke-width: 1.5;" width="125" x="159.5" y="759.5"/><ellipse cx="174.5" cy="775.5" fill="#ADD1B2" rx="11" ry="11" style="stroke: #A80036; stroke-width: 1.0;"/><path d="M176.8438,771.1719 L177.0156,771.25 C177.2344,770.9375 177.4375,770.8438 177.7344,770.8438 C178.0313,770.8438 178.3125,770.9844 178.4688,771.25 C178.5625,771.4063 178.5781,771.5313 178.5781,771.9688 L178.5781,773.3906 C178.5781,773.8125 178.5469,774 178.4375,774.1563 C178.2656,774.375 178,774.5156 177.7344,774.5156 C177.5156,774.5156 177.2813,774.4063 177.1406,774.2656 C177,774.1406 176.9688,774.0156 176.9063,773.6094 C176.8125,773.2031 176.6406,772.9844 176.1563,772.7031 C175.6875,772.4531 175.0781,772.2969 174.5,772.2969 C172.7656,772.2969 171.5156,773.6094 171.5156,775.3906 L171.5156,776.4844 C171.5156,778.1875 172.8125,779.2813 174.8594,779.2813 C175.625,779.2813 176.3125,779.1563 176.7344,778.8906 C176.9219,778.7969 176.9219,778.7969 177.375,778.3125 C177.5625,778.125 177.7656,778.0469 177.9844,778.0469 C178.4531,778.0469 178.8438,778.4375 178.8438,778.8906 C178.8438,779.2813 178.5156,779.7344 177.9375,780.1406 C177.1875,780.6875 176.0313,780.9844 174.8125,780.9844 C171.9219,780.9844 169.8125,779.0938 169.8125,776.5156 L169.8125,775.3906 C169.8125,772.6719 171.8125,770.5938 174.4375,770.5938 C175.3125,770.5938 175.9063,770.7344 176.8438,771.1719 Z "/><text fill="#000000" font-family="sans-serif" font-size="12" lengthAdjust="spacingAndGlyphs" textLength="93" x="188.5" y="779.6543">MyTestListener</text><line style="stroke: #A80036; stroke-width: 1.5;" x1="160.5" x2="283.5" y1="791.5" y2="791.5"/><line style="stroke: #A80036; stroke-width: 1.5;" x1="160.5" x2="283.5" y1="799.5" y2="799.5"/><!--class UnitData--><rect fill="#FEFECE" filter="url(#f1khizouoxtwqb)" height="86.4141" id="UnitData" style="stroke: #A80036; stroke-width: 1.5;" width="87" x="1197.5" y="500"/><ellipse cx="1212.5" cy="516" fill="#ADD1B2" rx="11" ry="11" style="stroke: #A80036; stroke-width: 1.0;"/><path d="M1214.8438,511.6719 L1215.0156,511.75 C1215.2344,511.4375 1215.4375,511.3438 1215.7344,511.3438 C1216.0313,511.3438 1216.3125,511.4844 1216.4688,511.75 C1216.5625,511.9063 1216.5781,512.0313 1216.5781,512.4688 L1216.5781,513.8906 C1216.5781,514.3125 1216.5469,514.5 1216.4375,514.6563 C1216.2656,514.875 1216,515.0156 1215.7344,515.0156 C1215.5156,515.0156 1215.2813,514.9063 1215.1406,514.7656 C1215,514.6406 1214.9688,514.5156 1214.9063,514.1094 C1214.8125,513.7031 1214.6406,513.4844 1214.1563,513.2031 C1213.6875,512.9531 1213.0781,512.7969 1212.5,512.7969 C1210.7656,512.7969 1209.5156,514.1094 1209.5156,515.8906 L1209.5156,516.9844 C1209.5156,518.6875 1210.8125,519.7813 1212.8594,519.7813 C1213.625,519.7813 1214.3125,519.6563 1214.7344,519.3906 C1214.9219,519.2969 1214.9219,519.2969 1215.375,518.8125 C1215.5625,518.625 1215.7656,518.5469 1215.9844,518.5469 C1216.4531,518.5469 1216.8438,518.9375 1216.8438,519.3906 C1216.8438,519.7813 1216.5156,520.2344 1215.9375,520.6406 C1215.1875,521.1875 1214.0313,521.4844 1212.8125,521.4844 C1209.9219,521.4844 1207.8125,519.5938 1207.8125,517.0156 L1207.8125,515.8906 C1207.8125,513.1719 1209.8125,511.0938 1212.4375,511.0938 C1213.3125,511.0938 1213.9063,511.2344 1214.8438,511.6719 Z "/><text fill="#000000" font-family="sans-serif" font-size="12" lengthAdjust="spacingAndGlyphs" textLength="55" x="1226.5" y="520.1543">UnitData</text><line style="stroke: #A80036; stroke-width: 1.5;" x1="1198.5" x2="1283.5" y1="532" y2="532"/><text fill="#000000" font-family="sans-serif" font-size="11" lengthAdjust="spacingAndGlyphs" textLength="46" x="1203.5" y="546.2104">-content</text><line style="stroke: #A80036; stroke-width: 1.5;" x1="1198.5" x2="1283.5" y1="552.8047" y2="552.8047"/><text fill="#000000" font-family="sans-serif" font-size="11" lengthAdjust="spacingAndGlyphs" textLength="58" x="1203.5" y="567.0151">+getters()</text><text fill="#000000" font-family="sans-serif" font-size="11" lengthAdjust="spacingAndGlyphs" textLength="58" x="1203.5" y="579.8198">+setters()</text><!--class Units--><rect fill="#FEFECE" filter="url(#f1khizouoxtwqb)" height="138.7656" id="Units" style="stroke: #A80036; stroke-width: 1.5;" width="202" x="1167" y="714"/><ellipse cx="1227.25" cy="732.9688" fill="#DA70D6" rx="11" ry="11" style="stroke: #A80036; stroke-width: 1.0;"/><path d="M1229.5938,728.6406 L1229.7656,728.7188 C1229.9844,728.4063 1230.1875,728.3125 1230.4844,728.3125 C1230.7813,728.3125 1231.0625,728.4531 1231.2188,728.7188 C1231.3125,728.875 1231.3281,729 1231.3281,729.4375 L1231.3281,730.8594 C1231.3281,731.2813 1231.2969,731.4688 1231.1875,731.625 C1231.0156,731.8438 1230.75,731.9844 1230.4844,731.9844 C1230.2656,731.9844 1230.0313,731.875 1229.8906,731.7344 C1229.75,731.6094 1229.7188,731.4844 1229.6563,731.0781 C1229.5625,730.6719 1229.3906,730.4531 1228.9063,730.1719 C1228.4375,729.9219 1227.8281,729.7656 1227.25,729.7656 C1225.5156,729.7656 1224.2656,731.0781 1224.2656,732.8594 L1224.2656,733.9531 C1224.2656,735.6563 1225.5625,736.75 1227.6094,736.75 C1228.375,736.75 1229.0625,736.625 1229.4844,736.3594 C1229.6719,736.2656 1229.6719,736.2656 1230.125,735.7813 C1230.3125,735.5938 1230.5156,735.5156 1230.7344,735.5156 C1231.2031,735.5156 1231.5938,735.9063 1231.5938,736.3594 C1231.5938,736.75 1231.2656,737.2031 1230.6875,737.6094 C1229.9375,738.1563 1228.7813,738.4531 1227.5625,738.4531 C1224.6719,738.4531 1222.5625,736.5625 1222.5625,733.9844 L1222.5625,732.8594 C1222.5625,730.1406 1224.5625,728.0625 1227.1875,728.0625 C1228.0625,728.0625 1228.6563,728.2031 1229.5938,728.6406 Z "/><text fill="#000000" font-family="sans-serif" font-size="12" font-style="italic" lengthAdjust="spacingAndGlyphs" textLength="77" x="1245.75" y="730.1387">«Decorator»</text><text fill="#000000" font-family="sans-serif" font-size="12" lengthAdjust="spacingAndGlyphs" textLength="32" x="1268.25" y="744.1074">Units</text><line style="stroke: #A80036; stroke-width: 1.5;" x1="1168" x2="1368" y1="751.9375" y2="751.9375"/><text fill="#000000" font-family="sans-serif" font-size="11" lengthAdjust="spacingAndGlyphs" textLength="146" x="1173" y="766.1479">-delegate: Set&lt;UnitData&gt;</text><line style="stroke: #A80036; stroke-width: 1.5;" x1="1168" x2="1368" y1="772.7422" y2="772.7422"/><text fill="#000000" font-family="sans-serif" font-size="11" lengthAdjust="spacingAndGlyphs" textLength="98" x="1173" y="786.9526">Units(Units units)</text><text fill="#000000" font-family="sans-serif" font-size="11" lengthAdjust="spacingAndGlyphs" textLength="190" x="1173" y="799.7573">Units(Collection&lt;UnitData&gt; units)</text><text fill="#000000" font-family="sans-serif" font-size="11" lengthAdjust="spacingAndGlyphs" textLength="37" x="1173" y="812.562">Units()</text><line style="stroke: #A80036; stroke-width: 1.0; stroke-dasharray: 1.0,2.0;" x1="1168" x2="1368" y1="819.1563" y2="819.1563"/><text fill="#000000" font-family="sans-serif" font-size="11" lengthAdjust="spacingAndGlyphs" textLength="185" x="1173" y="833.3667">+withAdded(UnitData unit): Units</text><text fill="#000000" font-family="sans-serif" font-size="11" lengthAdjust="spacingAndGlyphs" textLength="168" x="1173" y="846.1714">+without(UnitData unit): Units</text><!--class UnitTests--><rect fill="#FEFECE" filter="url(#f1khizouoxtwqb)" height="48" id="UnitTests" style="stroke: #A80036; stroke-width: 1.5;" width="91" x="1223.5" y="275"/><ellipse cx="1238.5" cy="291" fill="#ADD1B2" rx="11" ry="11" style="stroke: #A80036; stroke-width: 1.0;"/><path d="M1240.8438,286.6719 L1241.0156,286.75 C1241.2344,286.4375 1241.4375,286.3438 1241.7344,286.3438 C1242.0313,286.3438 1242.3125,286.4844 1242.4688,286.75 C1242.5625,286.9063 1242.5781,287.0313 1242.5781,287.4688 L1242.5781,288.8906 C1242.5781,289.3125 1242.5469,289.5 1242.4375,289.6563 C1242.2656,289.875 1242,290.0156 1241.7344,290.0156 C1241.5156,290.0156 1241.2813,289.9063 1241.1406,289.7656 C1241,289.6406 1240.9688,289.5156 1240.9063,289.1094 C1240.8125,288.7031 1240.6406,288.4844 1240.1563,288.2031 C1239.6875,287.9531 1239.0781,287.7969 1238.5,287.7969 C1236.7656,287.7969 1235.5156,289.1094 1235.5156,290.8906 L1235.5156,291.9844 C1235.5156,293.6875 1236.8125,294.7813 1238.8594,294.7813 C1239.625,294.7813 1240.3125,294.6563 1240.7344,294.3906 C1240.9219,294.2969 1240.9219,294.2969 1241.375,293.8125 C1241.5625,293.625 1241.7656,293.5469 1241.9844,293.5469 C1242.4531,293.5469 1242.8438,293.9375 1242.8438,294.3906 C1242.8438,294.7813 1242.5156,295.2344 1241.9375,295.6406 C1241.1875,296.1875 1240.0313,296.4844 1238.8125,296.4844 C1235.9219,296.4844 1233.8125,294.5938 1233.8125,292.0156 L1233.8125,290.8906 C1233.8125,288.1719 1235.8125,286.0938 1238.4375,286.0938 C1239.3125,286.0938 1239.9063,286.2344 1240.8438,286.6719 Z "/><text fill="#000000" font-family="sans-serif" font-size="12" lengthAdjust="spacingAndGlyphs" textLength="59" x="1252.5" y="295.1543">UnitTests</text><line style="stroke: #A80036; stroke-width: 1.5;" x1="1224.5" x2="1313.5" y1="307" y2="307"/><line style="stroke: #A80036; stroke-width: 1.5;" x1="1224.5" x2="1313.5" y1="315" y2="315"/><!--class UnitStepDefenitions--><rect fill="#FEFECE" filter="url(#f1khizouoxtwqb)" height="145.6328" id="UnitStepDefenitions" style="stroke: #A80036; stroke-width: 1.5;" width="157" x="1031.5" y="226"/><ellipse cx="1046.5" cy="242" fill="#ADD1B2" rx="11" ry="11" style="stroke: #A80036; stroke-width: 1.0;"/><path d="M1048.8438,237.6719 L1049.0156,237.75 C1049.2344,237.4375 1049.4375,237.3438 1049.7344,237.3438 C1050.0313,237.3438 1050.3125,237.4844 1050.4688,237.75 C1050.5625,237.9063 1050.5781,238.0313 1050.5781,238.4688 L1050.5781,239.8906 C1050.5781,240.3125 1050.5469,240.5 1050.4375,240.6563 C1050.2656,240.875 1050,241.0156 1049.7344,241.0156 C1049.5156,241.0156 1049.2813,240.9063 1049.1406,240.7656 C1049,240.6406 1048.9688,240.5156 1048.9063,240.1094 C1048.8125,239.7031 1048.6406,239.4844 1048.1563,239.2031 C1047.6875,238.9531 1047.0781,238.7969 1046.5,238.7969 C1044.7656,238.7969 1043.5156,240.1094 1043.5156,241.8906 L1043.5156,242.9844 C1043.5156,244.6875 1044.8125,245.7813 1046.8594,245.7813 C1047.625,245.7813 1048.3125,245.6563 1048.7344,245.3906 C1048.9219,245.2969 1048.9219,245.2969 1049.375,244.8125 C1049.5625,244.625 1049.7656,244.5469 1049.9844,244.5469 C1050.4531,244.5469 1050.8438,244.9375 1050.8438,245.3906 C1050.8438,245.7813 1050.5156,246.2344 1049.9375,246.6406 C1049.1875,247.1875 1048.0313,247.4844 1046.8125,247.4844 C1043.9219,247.4844 1041.8125,245.5938 1041.8125,243.0156 L1041.8125,241.8906 C1041.8125,239.1719 1043.8125,237.0938 1046.4375,237.0938 C1047.3125,237.0938 1047.9063,237.2344 1048.8438,237.6719 Z "/><text fill="#000000" font-family="sans-serif" font-size="12" lengthAdjust="spacingAndGlyphs" textLength="125" x="1060.5" y="246.1543">UnitStepDefenitions</text><line style="stroke: #A80036; stroke-width: 1.5;" x1="1032.5" x2="1187.5" y1="258" y2="258"/><text fill="#000000" font-family="sans-serif" font-size="11" lengthAdjust="spacingAndGlyphs" textLength="143" x="1037.5" y="272.2104">-app: ApplicationManager</text><line style="stroke: #A80036; stroke-width: 1.0; stroke-dasharray: 1.0,2.0;" x1="1032.5" x2="1187.5" y1="278.8047" y2="278.8047"/><text fill="#000000" font-family="sans-serif" font-size="11" lengthAdjust="spacingAndGlyphs" textLength="69" x="1037.5" y="293.0151">-units: Units</text><text fill="#000000" font-family="sans-serif" font-size="11" lengthAdjust="spacingAndGlyphs" textLength="105" x="1037.5" y="305.8198">-newUnit: UnitData</text><line style="stroke: #A80036; stroke-width: 1.5;" x1="1032.5" x2="1187.5" y1="312.4141" y2="312.4141"/><text fill="#000000" font-family="sans-serif" font-size="11" lengthAdjust="spacingAndGlyphs" textLength="34" x="1037.5" y="326.6245">+init()</text><text fill="#000000" font-family="sans-serif" font-size="11" lengthAdjust="spacingAndGlyphs" textLength="42" x="1037.5" y="339.4292">+stop()</text><text fill="#000000" font-family="sans-serif" font-size="11" lengthAdjust="spacingAndGlyphs" textLength="66" x="1037.5" y="352.2339">+someAct()</text><text fill="#000000" font-family="sans-serif" font-size="11" lengthAdjust="spacingAndGlyphs" textLength="83" x="1037.5" y="365.0386">+verifyResult()</text><!--class ITestListener--><rect fill="#FEFECE" filter="url(#f1khizouoxtwqb)" height="48" id="ITestListener" style="stroke: #A80036; stroke-width: 1.5;" width="112" x="6" y="519"/><ellipse cx="21" cy="535" fill="#B4A7E5" rx="11" ry="11" style="stroke: #A80036; stroke-width: 1.0;"/><path d="M21.9531,531.7813 L21.9531,538.2969 L23.6719,538.2969 C24.125,538.2969 24.2656,538.3281 24.4375,538.4531 C24.6719,538.625 24.7813,538.875 24.7813,539.1563 C24.7813,539.7188 24.4219,540 23.6719,540 L18.5313,540 C18.125,540 17.9219,539.9531 17.7656,539.8281 C17.5469,539.6719 17.4063,539.4063 17.4063,539.1563 C17.4063,538.8594 17.5625,538.5781 17.8125,538.4219 C17.9688,538.3125 18.0938,538.2969 18.5313,538.2969 L20.25,538.2969 L20.25,531.7813 L18.5313,531.7813 C18.1094,531.7813 17.9219,531.75 17.7656,531.6406 C17.5469,531.4688 17.4063,531.2188 17.4063,530.9375 C17.4063,530.6563 17.5625,530.3594 17.8125,530.2031 C17.9688,530.1094 18.0938,530.0938 18.5313,530.0938 L23.6719,530.0938 C24.125,530.0938 24.2656,530.125 24.4375,530.2344 C24.6719,530.4063 24.7813,530.6719 24.7813,530.9375 C24.7813,531.2344 24.6406,531.5156 24.375,531.6719 C24.25,531.75 24.0625,531.7813 23.6719,531.7813 Z "/><text fill="#000000" font-family="sans-serif" font-size="12" font-style="italic" lengthAdjust="spacingAndGlyphs" textLength="80" x="35" y="539.1543">ITestListener</text><line style="stroke: #A80036; stroke-width: 1.5;" x1="7" x2="117" y1="551" y2="551"/><line style="stroke: #A80036; stroke-width: 1.5;" x1="7" x2="117" y1="559" y2="559"/><!--class ForwardingSet--><rect fill="#FEFECE" filter="url(#f1khizouoxtwqb)" height="48" id="ForwardingSet" style="stroke: #A80036; stroke-width: 1.5;" width="182" x="953" y="519"/><ellipse cx="968" cy="535" fill="#A9DCDF" rx="11" ry="11" style="stroke: #A80036; stroke-width: 1.0;"/><path d="M969.5781,536.8125 L965.5313,536.8125 L965.1406,537.7969 L965.5313,537.7969 C965.9844,537.7969 966.125,537.8281 966.2969,537.9531 C966.5156,538.125 966.6406,538.375 966.6406,538.6563 C966.6406,538.9375 966.5,539.2344 966.2344,539.375 C966.1094,539.4688 965.8906,539.5 965.5313,539.5 L963.2656,539.5 C962.5156,539.5 962.1406,539.2188 962.1406,538.6563 C962.1406,538.3594 962.2969,538.0781 962.5469,537.9219 C962.7031,537.8125 962.8594,537.7969 963.2813,537.7969 L965.9219,531.2813 L964.8438,531.2813 C964.4063,531.2813 964.2344,531.25 964.0625,531.1406 C963.8438,530.9688 963.7031,530.7188 963.7031,530.4375 C963.7031,530.1563 963.8594,529.875 964.1094,529.7031 C964.2656,529.6094 964.3906,529.5938 964.8438,529.5938 L968.5156,529.5938 L971.9063,537.7969 C972.375,537.7969 972.5313,537.8281 972.7031,537.9688 C972.9219,538.125 973.0625,538.375 973.0625,538.6563 C973.0625,538.9375 972.9063,539.2344 972.6563,539.375 C972.5156,539.4688 972.2969,539.5 971.9375,539.5 L969.5781,539.5 C969.1563,539.5 968.9531,539.4531 968.8125,539.3281 C968.5938,539.1719 968.4531,538.9219 968.4531,538.6563 C968.4531,538.3594 968.6094,538.0781 968.8594,537.9219 C969.0156,537.8125 969.125,537.7969 969.5781,537.7969 L969.9688,537.7969 Z M968.875,535.1094 L967.5469,531.8438 L966.2031,535.1094 Z "/><text fill="#000000" font-family="sans-serif" font-size="12" font-style="italic" lengthAdjust="spacingAndGlyphs" textLength="91" x="982" y="539.1543">ForwardingSet</text><rect fill="#FFFFFF" height="15.9688" style="stroke: #000000; stroke-width: 1.0; stroke-dasharray: 2.0,2.0;" width="57" x="1081" y="516"/><text fill="#000000" font-family="sans-serif" font-size="12" font-style="italic" lengthAdjust="spacingAndGlyphs" textLength="55" x="1082" y="528.1387">UnitData</text><line style="stroke: #A80036; stroke-width: 1.5;" x1="954" x2="1134" y1="551" y2="551"/><line style="stroke: #A80036; stroke-width: 1.5;" x1="954" x2="1134" y1="559" y2="559"/><!--class AbstractTestNGCucumberTests--><rect fill="#FEFECE" filter="url(#f1khizouoxtwqb)" height="48" id="AbstractTestNGCucumberTests" style="stroke: #A80036; stroke-width: 1.5;" width="223" x="1157.5" y="88.5"/><ellipse cx="1172.5" cy="104.5" fill="#A9DCDF" rx="11" ry="11" style="stroke: #A80036; stroke-width: 1.0;"/><path d="M1174.0781,106.3125 L1170.0313,106.3125 L1169.6406,107.2969 L1170.0313,107.2969 C1170.4844,107.2969 1170.625,107.3281 1170.7969,107.4531 C1171.0156,107.625 1171.1406,107.875 1171.1406,108.1563 C1171.1406,108.4375 1171,108.7344 1170.7344,108.875 C1170.6094,108.9688 1170.3906,109 1170.0313,109 L1167.7656,109 C1167.0156,109 1166.6406,108.7188 1166.6406,108.1563 C1166.6406,107.8594 1166.7969,107.5781 1167.0469,107.4219 C1167.2031,107.3125 1167.3594,107.2969 1167.7813,107.2969 L1170.4219,100.7813 L1169.3438,100.7813 C1168.9063,100.7813 1168.7344,100.75 1168.5625,100.6406 C1168.3438,100.4688 1168.2031,100.2188 1168.2031,99.9375 C1168.2031,99.6563 1168.3594,99.375 1168.6094,99.2031 C1168.7656,99.1094 1168.8906,99.0938 1169.3438,99.0938 L1173.0156,99.0938 L1176.4063,107.2969 C1176.875,107.2969 1177.0313,107.3281 1177.2031,107.4688 C1177.4219,107.625 1177.5625,107.875 1177.5625,108.1563 C1177.5625,108.4375 1177.4063,108.7344 1177.1563,108.875 C1177.0156,108.9688 1176.7969,109 1176.4375,109 L1174.0781,109 C1173.6563,109 1173.4531,108.9531 1173.3125,108.8281 C1173.0938,108.6719 1172.9531,108.4219 1172.9531,108.1563 C1172.9531,107.8594 1173.1094,107.5781 1173.3594,107.4219 C1173.5156,107.3125 1173.625,107.2969 1174.0781,107.2969 L1174.4688,107.2969 Z M1173.375,104.6094 L1172.0469,101.3438 L1170.7031,104.6094 Z "/><text fill="#000000" font-family="sans-serif" font-size="12" font-style="italic" lengthAdjust="spacingAndGlyphs" textLength="191" x="1186.5" y="108.6543">AbstractTestNGCucumberTests</text><line style="stroke: #A80036; stroke-width: 1.5;" x1="1158.5" x2="1379.5" y1="120.5" y2="120.5"/><line style="stroke: #A80036; stroke-width: 1.5;" x1="1158.5" x2="1379.5" y1="128.5" y2="128.5"/><!--link HelperBase to ApplicationManager--><path d="M439.081,169.318 C435.318,173.568 431.923,178.123 429,183 C386.562,253.81 401.918,346.091 427.053,419.361 " fill="none" id="HelperBase-ApplicationManager" style="stroke: #A80036; stroke-width: 1.0;"/><polygon fill="#A80036" points="431.504,431.878,432.2573,422.058,429.8287,427.167,424.7197,424.7384,431.504,431.878" style="stroke: #A80036; stroke-width: 1.0;"/><line style="stroke: #A80036; stroke-width: 1.0;" x1="429.8287" x2="427.148" y1="427.167" y2="419.6295"/><polygon fill="#A80036" points="448.48,159.942,441.4073,161.348,439.9848,168.4174,447.0575,167.0114,448.48,159.942" style="stroke: #A80036; stroke-width: 1.0;"/><text fill="#000000" font-family="sans-serif" font-size="13" lengthAdjust="spacingAndGlyphs" textLength="8" x="432.4278" y="159.8143">1</text><text fill="#000000" font-family="sans-serif" font-size="13" lengthAdjust="spacingAndGlyphs" textLength="8" x="419.7082" y="420.964">1</text><!--link SomeHelper to ApplicationManager--><path d="M545.888,342.308 C539.184,363.939 530.644,391.496 522.064,419.18 " fill="none" id="SomeHelper-ApplicationManager" style="stroke: #A80036; stroke-width: 1.0;"/><polygon fill="#A80036" points="518.126,431.888,524.6111,424.4756,519.6062,427.1121,516.9697,422.1073,518.126,431.888" style="stroke: #A80036; stroke-width: 1.0;"/><line style="stroke: #A80036; stroke-width: 1.0;" x1="519.6062" x2="521.974" y1="427.1121" y2="419.47"/><polygon fill="#A80036" points="549.804,329.674,544.207,334.2209,546.2514,341.1361,551.8484,336.5892,549.804,329.674" style="stroke: #A80036; stroke-width: 1.0;"/><text fill="#000000" font-family="sans-serif" font-size="13" lengthAdjust="spacingAndGlyphs" textLength="8" x="539.206" y="349.2887">1</text><text fill="#000000" font-family="sans-serif" font-size="13" lengthAdjust="spacingAndGlyphs" textLength="8" x="512.1501" y="420.9746">1</text><!--link OtherHelper to ApplicationManager--><path d="M298.311,339.582 C319.211,362.365 346.702,392.333 374.103,422.202 " fill="none" id="OtherHelper-ApplicationManager" style="stroke: #A80036; stroke-width: 1.0;"/><polygon fill="#A80036" points="382.988,431.888,381.8795,424.7626,374.8758,423.0453,375.9844,430.1707,382.988,431.888" style="stroke: #A80036; stroke-width: 1.0;"/><polygon fill="#A80036" points="289.222,329.674,290.3305,336.7994,297.3342,338.5167,296.2256,331.3913,289.222,329.674" style="stroke: #A80036; stroke-width: 1.0;"/><text fill="#000000" font-family="sans-serif" font-size="13" lengthAdjust="spacingAndGlyphs" textLength="8" x="285.7938" y="349.2887">1</text><text fill="#000000" font-family="sans-serif" font-size="13" lengthAdjust="spacingAndGlyphs" textLength="8" x="367.9325" y="420.9746">1</text><!--link UnitHelper to ApplicationManager--><path d="M765.698,337.743 C742.63,355.602 714.543,377.106 689,396 C661.2,416.564 630.997,438.367 602.534,458.677 " fill="none" id="UnitHelper-ApplicationManager" style="stroke: #A80036; stroke-width: 1.0;"/><polygon fill="#A80036" points="591.718,466.382,598.9256,466.1587,601.4917,459.4196,594.2841,459.6429,591.718,466.382" style="stroke: #A80036; stroke-width: 1.0;"/><polygon fill="#A80036" points="776.251,329.557,766.6882,331.9133,772.3005,332.6218,771.5919,338.2341,776.251,329.557" style="stroke: #A80036; stroke-width: 1.0;"/><line style="stroke: #A80036; stroke-width: 1.0;" x1="772.3005" x2="765.979" y1="332.6218" y2="337.525"/><text fill="#000000" font-family="sans-serif" font-size="13" lengthAdjust="spacingAndGlyphs" textLength="8" x="759.6403" y="349.507">1</text><text fill="#000000" font-family="sans-serif" font-size="13" lengthAdjust="spacingAndGlyphs" textLength="8" x="599.5732" y="457.5228">1</text><!--link HelperBase to SomeHelper--><path d="M559,186.562 C559,215.144 559,246.298 559,268.38 " fill="none" id="HelperBase-SomeHelper" style="stroke: #A80036; stroke-width: 1.0;"/><polygon fill="none" points="552,186.37,559,166.37,566,186.37,552,186.37" style="stroke: #A80036; stroke-width: 1.0;"/><!--link HelperBase to UnitHelper--><path d="M680.431,177.098 C683.341,179.045 686.202,181.014 689,183 C725.068,208.605 761.784,243.687 786.006,268.348 " fill="none" id="HelperBase-UnitHelper" style="stroke: #A80036; stroke-width: 1.0;"/><polygon fill="none" points="676.43,182.849,663.325,166.198,683.953,171.042,676.43,182.849" style="stroke: #A80036; stroke-width: 1.0;"/><!--link ApplicationManager to TestBase--><path d="M440.762,666.764 C433.214,688.196 425.719,709.476 419.254,727.833 " fill="none" id="ApplicationManager-TestBase" style="stroke: #A80036; stroke-width: 1.0;"/><polygon fill="#A80036" points="414.849,740.34,420.6151,736.0096,418.8355,729.0215,413.0694,733.3519,414.849,740.34" style="stroke: #A80036; stroke-width: 1.0;"/><polygon fill="#A80036" points="445.196,654.174,438.4333,661.334,443.535,658.89,445.979,663.9917,445.196,654.174" style="stroke: #A80036; stroke-width: 1.0;"/><line style="stroke: #A80036; stroke-width: 1.0;" x1="443.535" x2="440.8775" y1="658.89" y2="666.4365"/><text fill="#000000" font-family="sans-serif" font-size="13" lengthAdjust="spacingAndGlyphs" textLength="8" x="434.1863" y="674.5736">1</text><text fill="#000000" font-family="sans-serif" font-size="13" lengthAdjust="spacingAndGlyphs" textLength="8" x="408.5781" y="729.3105">1</text><!--link TestBase to UnitEvent1Tests--><path d="M341.644,841.065 C316.631,865.312 288.446,892.632 267.634,912.806 " fill="none" id="TestBase-UnitEvent1Tests" style="stroke: #A80036; stroke-width: 1.0;"/><polygon fill="none" points="337.086,835.735,356.319,826.841,346.83,845.788,337.086,835.735" style="stroke: #A80036; stroke-width: 1.0;"/><!--link TestBase to UnitEvent2Tests--><path d="M402.368,846.854 C403.227,869.477 404.158,894.007 404.863,912.5608 " fill="none" id="TestBase-UnitEvent2Tests" style="stroke: #A80036; stroke-width: 1.0;"/><polygon fill="none" points="395.372,847.092,401.608,826.841,409.362,846.561,395.372,847.092" style="stroke: #A80036; stroke-width: 1.0;"/><!--link ITestListener to MyTestListener--><path d="M81.3325,585.144 C94.7674,612.328 113.826,648.287 134,678 C154.118,707.63 181.12,738.663 199.885,759.135 " fill="none" id="ITestListener-MyTestListener" style="stroke: #A80036; stroke-width: 1.0; stroke-dasharray: 7.0,7.0;"/><polygon fill="none" points="75.0191,588.168,72.6081,567.116,87.6211,582.069,75.0191,588.168" style="stroke: #A80036; stroke-width: 1.0;"/><!--link ForwardingSet to Units--><path d="M1072.67,583.376 C1093.33,610.865 1122.5,647.879 1151,678 C1162.42,690.067 1175.04,702.317 1187.64,713.977 " fill="none" id="ForwardingSet-Units" style="stroke: #A80036; stroke-width: 1.0; stroke-dasharray: 7.0,7.0;"/><polygon fill="none" points="1066.99,587.478,1060.69,567.248,1078.24,579.133,1066.99,587.478" style="stroke: #A80036; stroke-width: 1.0;"/><!--link UnitStepDefenitions to UnitData--><path d="M1155.45,383.963 C1174.17,418.543 1195.31,457.59 1211.89,488.219 " fill="none" id="UnitStepDefenitions-UnitData" style="stroke: #A80036; stroke-width: 1.0;"/><polygon fill="#A80036" points="1218.23,499.941,1217.467,490.1217,1215.8515,495.543,1210.4302,493.9274,1218.23,499.941" style="stroke: #A80036; stroke-width: 1.0;"/><line style="stroke: #A80036; stroke-width: 1.0;" x1="1215.8515" x2="1212.045" y1="495.543" y2="488.509"/><polygon fill="#A80036" points="1149.13,372.28,1148.4659,379.4605,1154.8385,382.8352,1155.5027,375.6548,1149.13,372.28" style="stroke: #A80036; stroke-width: 1.0;"/><text fill="#000000" font-family="sans-serif" font-size="13" lengthAdjust="spacingAndGlyphs" textLength="8" x="1144.3685" y="391.8168">1</text><text fill="#000000" font-family="sans-serif" font-size="13" lengthAdjust="spacingAndGlyphs" textLength="8" x="1205.9635" y="488.9276">1</text><!--link UnitData to Units--><path d="M1247.24,599.112 C1250.65,629.24 1254.94,667.143 1258.73,700.659 " fill="none" id="UnitData-Units" style="stroke: #A80036; stroke-width: 1.0;"/><polygon fill="#A80036" points="1260.22,713.746,1263.5207,707.3347,1258.8721,701.8219,1255.5714,708.2333,1260.22,713.746" style="stroke: #A80036; stroke-width: 1.0;"/><polygon fill="#A80036" points="1245.76,586.09,1242.7974,595.4827,1246.3222,591.0583,1250.7466,594.5831,1245.76,586.09" style="stroke: #A80036; stroke-width: 1.0;"/><line style="stroke: #A80036; stroke-width: 1.0;" x1="1246.3222" x2="1247.23" y1="591.0583" y2="599.0075"/><text fill="#000000" font-family="sans-serif" font-size="13" lengthAdjust="spacingAndGlyphs" textLength="8" x="1237.8859" y="606.5126">1</text><text fill="#000000" font-family="sans-serif" font-size="13" lengthAdjust="spacingAndGlyphs" textLength="8" x="1251.0052" y="702.865">1</text><!--link AbstractTestNGCucumberTests to UnitTests--><path d="M1269,157.125 C1269,194 1269,245.388 1269,274.823 " fill="none" id="AbstractTestNGCucumberTests-UnitTests" style="stroke: #A80036; stroke-width: 1.0; stroke-dasharray: 7.0,7.0;"/><polygon fill="none" points="1262,156.867,1269,136.867,1276,156.867,1262,156.867" style="stroke: #A80036; stroke-width: 1.0;"/><!--link UnitStepDefenitions to ApplicationManager--><path d="M1019.69,354.457 C993.539,369.028 964.588,384.036 937,396 C827.379,443.54 697.063,483.956 604.407,510.129 " fill="none" id="UnitStepDefenitions-ApplicationManager" style="stroke: #A80036; stroke-width: 1.0;"/><polygon fill="#A80036" points="591.875,513.647,601.6212,515.0651,596.6888,512.2953,599.4586,507.3629,591.875,513.647" style="stroke: #A80036; stroke-width: 1.0;"/><line style="stroke: #A80036; stroke-width: 1.0;" x1="596.6888" x2="604.391" y1="512.2953" y2="510.1335"/><polygon fill="#A80036" points="1031.11,348.028,1023.9195,347.4832,1020.6511,353.9111,1027.8416,354.4559,1031.11,348.028" style="stroke: #A80036; stroke-width: 1.0;"/><text fill="#000000" font-family="sans-serif" font-size="13" lengthAdjust="spacingAndGlyphs" textLength="8" x="1015.4686" y="348.9463">1</text><text fill="#000000" font-family="sans-serif" font-size="13" lengthAdjust="spacingAndGlyphs" textLength="8" x="599.3916" y="508.2268">1</text><!--
@startuml
interface ITestListener

package "managers" #DDDDDD {
 skinparam classAttributeIconSize 0
 class ApplicationManager {
  -properties: Properties
  -driver: WebDriver
  -someHelper
  -unitHelper
  -browser: String
__
  ApplicationManager(String browser)
..
  +init()
  +stop()
  +getProperty(String key): String
  +getDriver(): WebDriver
  +someHelper(): SomeHelper
  +otherHelper(): OtherHelper
  +unitHelper(): UnitHelper
 }

 class HelperBase {
  #app: ApplicationManager
  #driver: WebDriver
__
  HelperBase(ApplicationManager app)
..
  #someWebPageAct()
 }

 class SomeHelper {
  SomeHelper(ApplicationManager app)
 }

 class OtherHelper {
  OtherHelper(ApplicationManager app)
 }

 class UnitHelper {
  UnitHelper(ApplicationManager app)
 }

 HelperBase "1" *- -> "1" ApplicationManager
 SomeHelper "1" *- -> "1" ApplicationManager
 OtherHelper "1" *- -* "1" ApplicationManager
 UnitHelper "1" <- -* "1" ApplicationManager
 HelperBase <|- - SomeHelper
 HelperBase <|- - UnitHelper
}

package "tests" #DDDDDD {
 class TestBase {
  #{static}app: ApplicationManager
__
  +setUp()
  +tearDown()
 }

 class UnitEvent1Tests {
  +testUnitEvent1()
 }

 class UnitEvent2Tests {
  +testUnitEvent2()
 }

 class MyTestListener

 ApplicationManager "1" <- -* "1" TestBase
 TestBase <|- - UnitEvent1Tests
 TestBase <|- - UnitEvent2Tests
}

ITestListener <|.. MyTestListener

package "model" #DDDDDD {
 class UnitData {
  -content
__
  +getters()
  +setters()
 }

 class Units << (C, orchid) Decorator >> {
  -delegate: Set<UnitData>
__
  Units(Units units)
  Units(Collection<UnitData> units)
  Units()
..
  +withAdded(UnitData unit): Units
  +without(UnitData unit): Units
 }
}

abstract class ForwardingSet<UnitData>

ForwardingSet <|.. Units

package "bdd" #DDDDDD {
 class UnitTests

 class UnitStepDefenitions {
  -app: ApplicationManager
..
  -units: Units
  -newUnit: UnitData
__
  +init()
  +stop()
  +someAct()
  +verifyResult()
 }
}

abstract class AbstractTestNGCucumberTests

UnitStepDefenitions "1" *- -> "1" UnitData
UnitData "1" <- -* "1" Units
AbstractTestNGCucumberTests <|.. UnitTests
UnitStepDefenitions "1" *- -> "1" ApplicationManager
@enduml

PlantUML version 1.2017.20(Mon Dec 11 16:57:05 UTC 2017)
(GPL source distribution)
Java Runtime: Java(TM) SE Runtime Environment
JVM: Java HotSpot(TM) 64-Bit Server VM
Java Version: 1.7.0_25-b15
Operating System: Linux
Default Encoding: UTF-8
Language: en
Country: US
--></g></svg>